# xmcd
#
# Track frame offsets:
#	150
#	14440
#	28594
#	42891
#	54896
#	71218
#	84522
#	93331
#
# Disc length: 1418 seconds
#
# Revision: 0
# Processed by: cddbd v1.5.2PL0 Copyright (c) Steve Scherf et al.
# Submitted via: EasyCDDAExtractor 16.0.6.1
#
DISCID=5d058808
DTITLE=Ζαμπέτας Γιώργος - Οκτώ μεγάλες επιτυχίες-Γ. Ζαμπέτας
DYEAR=2006
DGENRE=Λαϊκή
TTITLE0=Ζαμπέτας Γιώργος - Όταν καπνίζει ο λουλάς [1983, Γ. Μητσάκης]
TTITLE1=Ζαμπέτας Γιώργος - Το φανταράκι [1965, Σπ. Πιπεράκης-Κώστας Φέρρης]
TTITLE2=Ζαμπέτας Γιώργος - Με το χρήμα, με το χρήμα [1973, Γ. Ζαμπέτας-Ναπολέω
TTITLE2=ν Ελευθερίου]
TTITLE3=Ζαμπέτας Γιώργος-χορωδία - Κυρ δάσκαλε [1972, Γ. Ζαμπέτας-Αλέξ. Καγιάν
TTITLE3=τας]
TTITLE4=Ζαμπέτας Γιώργος-χορωδία - Σ' αυτές τις στράτες [1975, Γ. Ζαμπέτας-Αλέ
TTITLE4=ξ. Καγιάντας]
TTITLE5=Ζαμπέτας Γιώργος - Το σαραβαλάκι [1969, Γ. Ζαμπέτας-Πυθαγόρας]
TTITLE6=Ζαμπέτας Γιώργος - Πολυξένη [1975, Γ. Ζαμπέτας-Θάνος Σοφός]
TTITLE7=Ζαμπέτας Γιώργος - Να ξανακούσω την λατέρνα [1977, Γ. Ζαμπέτας-Αλέξ. Κ
TTITLE7=αγιάντας]
EXTD=
EXTT0=
EXTT1=
EXTT2=
EXTT3=
EXTT4=
EXTT5=
EXTT6=
EXTT7=
PLAYORDER=
